<svg width="96" height="96" viewBox="0 0 96 96" fill="none" xmlns="http://www.w3.org/2000/svg">
  <defs>
    <linearGradient id="glassSurfFill" x1="18" y1="12" x2="78" y2="86" gradientUnits="userSpaceOnUse">
      <stop offset="0" stop-color="#F8FEFF" stop-opacity="0.92"/>
      <stop offset="0.5" stop-color="#9FE8E7" stop-opacity="0.72"/>
      <stop offset="1" stop-color="#F7DDB5" stop-opacity="0.82"/>
    </linearGradient>
  </defs>
  <rect x="8" y="8" width="80" height="80" rx="28" fill="url(#glassSurfFill)" fill-opacity="0.9"/>
  <rect x="8" y="8" width="80" height="80" rx="28" stroke="#FFFFFF" stroke-opacity="0.55"/>
  <path d="M52.9 23.5C56.8 30.8 59 39.1 59 47.9C59 59.7 55 70.5 48 79.1C41 70.5 37 59.7 37 47.9C37 39.1 39.2 30.8 43.1 23.5C44.2 21.5 45.6 19.6 47.1 17.8C47.6 17.2 48.4 17.2 48.9 17.8C50.4 19.6 51.8 21.5 52.9 23.5Z" fill="#FFFFFF" fill-opacity="0.88"/>
  <path d="M29 62C34.7 57.4 40.8 55 47.5 55C54.2 55 60.3 57.4 66 62" stroke="#1C5160" stroke-opacity="0.48" stroke-width="4.5" stroke-linecap="round"/>
  <path d="M25 69.5C32.2 64.3 39.8 61.7 47.5 61.7C55.2 61.7 62.8 64.3 70 69.5" stroke="#1C5160" stroke-opacity="0.36" stroke-width="4" stroke-linecap="round"/>
</svg>
